<svg width="280" height="34" viewBox="0 0 280 34" fill="none" xmlns="http://www.w3.org/2000/svg">
<path d="M15.8805 13.1773C15.2965 13.3823 14.661 13.5299 14.0064 13.5874C14.686 13.2587 15.1949 12.7395 15.4377 12.1272C14.8 12.436 14.1013 12.6525 13.3727 12.7672C13.0682 12.5022 12.6999 12.2912 12.2908 12.1471C11.8817 12.0031 11.4405 11.9291 10.9948 11.9299C9.19125 11.9299 7.7408 13.1198 7.7408 14.58C7.7408 14.785 7.77134 14.9901 7.82096 15.1873C5.12046 15.0724 2.71195 14.0223 1.11074 12.4146C0.818978 12.8202 0.666086 13.282 0.667969 13.752C0.667969 14.6716 1.24242 15.4825 2.11842 15.9594C1.60218 15.9428 1.09803 15.8273 0.646976 15.6223V15.6549C0.646976 16.9426 1.76535 18.0098 3.25587 18.2552C2.97601 18.3144 2.68811 18.3447 2.39896 18.3453C2.18712 18.3453 1.98673 18.3282 1.78443 18.3049C2.19666 19.355 3.3971 20.1177 4.82655 20.1426C3.70818 20.8556 2.30736 21.275 0.786295 21.275C0.513382 21.275 0.261462 21.2672 0 21.2423C1.44281 21.9957 3.15472 22.4307 4.99831 22.4307C10.9833 22.4307 14.2583 18.395 14.2583 14.8922C14.2583 14.7773 14.2583 14.6623 14.2487 14.5474C14.8823 14.1699 15.4377 13.7023 15.8805 13.1773Z" fill="#FFC30B"/>
<path d="M67.9596 12.0814L65.8471 22.0439C65.6876 22.7469 65.2721 22.9219 64.6816 22.5909L61.4626 20.2189L59.9096 21.7129C59.7376 21.8849 59.5941 22.0284 59.2626 22.0284L59.4941 18.7504L65.4596 13.3599C65.7191 13.1289 65.4031 13.0004 65.0566 13.2319L57.6816 17.8759L54.5066 16.8819C53.8161 16.6664 53.8036 16.1914 54.6506 15.8599L67.0691 11.0754C67.6441 10.8599 68.1471 11.2034 67.9596 12.0819V12.0814Z" fill="#FFC30B"/>
<path d="M117 14.9171C115.853 14.9171 114.917 15.8531 114.917 16.9999C114.917 18.1468 115.853 19.0827 117 19.0827C118.147 19.0827 119.083 18.1468 119.083 16.9999C119.083 15.8531 118.147 14.9171 117 14.9171ZM123.247 16.9999C123.247 16.1374 123.255 15.2827 123.206 14.4218C123.158 13.4218 122.93 12.5343 122.199 11.8031C121.466 11.0702 120.58 10.8437 119.58 10.7952C118.717 10.7468 117.863 10.7546 117.002 10.7546C116.139 10.7546 115.284 10.7468 114.424 10.7952C113.424 10.8437 112.536 11.0718 111.805 11.8031C111.072 12.5359 110.845 13.4218 110.797 14.4218C110.749 15.2843 110.756 16.139 110.756 16.9999C110.756 17.8609 110.749 18.7171 110.797 19.5781C110.845 20.5781 111.074 21.4656 111.805 22.1968C112.538 22.9296 113.424 23.1562 114.424 23.2046C115.286 23.2531 116.141 23.2452 117.002 23.2452C117.864 23.2452 118.719 23.2531 119.58 23.2046C120.58 23.1562 121.467 22.9281 122.199 22.1968C122.931 21.464 123.158 20.5781 123.206 19.5781C123.256 18.7171 123.247 17.8624 123.247 16.9999ZM117 20.2046C115.227 20.2046 113.795 18.7734 113.795 16.9999C113.795 15.2265 115.227 13.7952 117 13.7952C118.774 13.7952 120.205 15.2265 120.205 16.9999C120.205 18.7734 118.774 20.2046 117 20.2046ZM120.336 14.4124C119.922 14.4124 119.588 14.0781 119.588 13.664C119.588 13.2499 119.922 12.9156 120.336 12.9156C120.75 12.9156 121.084 13.2499 121.084 13.664C121.085 13.7623 121.065 13.8597 121.028 13.9506C120.99 14.0414 120.935 14.124 120.866 14.1935C120.796 14.263 120.713 14.3181 120.623 14.3557C120.532 14.3933 120.434 14.4126 120.336 14.4124Z" fill="#FFC30B"/>
<path d="M179 11H167.5C167.223 11 167 11.2234 167 11.5V23C167 23.2766 167.223 23.5 167.5 23.5H179C179.277 23.5 179.5 23.2766 179.5 23V11.5C179.5 11.2234 179.277 11 179 11ZM170.708 21.6516H168.853V15.6859H170.708V21.6516ZM169.781 14.8703C169.569 14.8703 169.361 14.8073 169.184 14.6891C169.007 14.571 168.869 14.4031 168.788 14.2067C168.707 14.0103 168.685 13.7941 168.727 13.5856C168.768 13.3771 168.871 13.1855 169.021 13.0352C169.171 12.8848 169.363 12.7824 169.572 12.741C169.78 12.6995 169.996 12.7208 170.193 12.8021C170.389 12.8835 170.557 13.0213 170.675 13.1981C170.793 13.3749 170.856 13.5827 170.856 13.7953C170.855 14.3891 170.373 14.8703 169.781 14.8703ZM177.652 21.6516H175.798V18.75C175.798 18.0578 175.786 17.1687 174.834 17.1687C173.87 17.1687 173.722 17.9219 173.722 18.7V21.6516H171.87V15.6859H173.648V16.5016H173.673C173.92 16.0328 174.525 15.5375 175.428 15.5375C177.306 15.5375 177.652 16.7734 177.652 18.3797V21.6516Z" fill="#FFC30B"/>
<path d="M233.025 17.2C233.025 16.2 232.225 15.4 231.225 15.5C230.825 15.5 230.325 15.7 230.025 16C228.625 15.1 227.025 14.5 225.325 14.5L226.125 10.7L228.725 11.3C228.725 12 229.325 12.5 230.025 12.5C230.725 12.5 231.225 11.9 231.225 11.2C231.225 10.5 230.625 10 229.925 10C229.425 10 229.025 10.3 228.825 10.7L226.025 10H225.825C225.725 10 225.725 10.1 225.725 10.2L224.725 14.5C223.025 14.5 221.425 15 220.025 16C219.325 15.3 218.225 15.3 217.525 16C216.825 16.7 216.825 17.8 217.525 18.5C217.625 18.6 217.825 18.8 218.025 18.8V19.3C218.025 22 221.125 24.2 225.025 24.2C228.925 24.2 232.025 22 232.025 19.3V18.8C232.625 18.5 233.025 17.9 233.025 17.2ZM221.025 18.5C221.025 17.8 221.625 17.3 222.225 17.3C222.925 17.3 223.425 17.9 223.425 18.5C223.425 19.1 222.825 19.7 222.225 19.7C221.525 19.7 221.025 19.2 221.025 18.5ZM228.025 21.8C227.125 22.4 226.125 22.8 225.025 22.7C223.925 22.7 222.925 22.4 222.025 21.8C221.925 21.7 221.925 21.5 222.025 21.3C222.125 21.2 222.325 21.2 222.425 21.3C223.125 21.8 224.025 22.1 224.925 22C225.825 22.1 226.725 21.8 227.425 21.3C227.525 21.2 227.725 21.2 227.925 21.3C228.125 21.4 228.125 21.6 228.025 21.8ZM227.725 19.7C227.025 19.7 226.525 19.1 226.525 18.5C226.525 17.9 227.125 17.3 227.725 17.3C228.425 17.3 228.925 17.9 228.925 18.5C229.025 19.2 228.425 19.7 227.725 19.7Z" fill="#FFC30B"/>
<path d="M277.75 10.75H266.25C265.973 10.75 265.75 10.9734 265.75 11.25V22.75C265.75 23.0266 265.973 23.25 266.25 23.25H277.75C278.027 23.25 278.25 23.0266 278.25 22.75V11.25C278.25 10.9734 278.027 10.75 277.75 10.75ZM276.306 14.3984H275.308C274.525 14.3984 274.373 14.7703 274.373 15.3172V16.5219H276.242L275.998 18.4078H274.373V23.25H272.425V18.4094H270.795V16.5219H272.425V15.1312C272.425 13.5172 273.411 12.6375 274.852 12.6375C275.542 12.6375 276.134 12.6891 276.308 12.7125V14.3984H276.306Z" fill="#FFC30B"/>
</svg>
