<svg width="18" height="19" viewBox="0 0 18 19" fill="none" xmlns="http://www.w3.org/2000/svg">
<path d="M17.4377 13.1103C16.8408 14.7121 15.8 16.1108 14.4371 17.1427C13.0743 18.1746 11.4457 18.7971 9.74198 18.9372C8.03828 19.0773 6.3299 18.7293 4.81675 17.9339C3.30361 17.1385 2.04828 15.9287 1.19765 14.4459C0.347021 12.9631 -0.0637198 11.2687 0.013487 9.56099C0.0906938 7.85328 0.652655 6.20287 1.63362 4.80288C2.61458 3.4029 3.97396 2.31124 5.55271 1.65564C7.13145 1.00005 8.86426 0.807631 10.5484 1.10091C9.2339 2.14167 8.33664 3.61965 8.01978 5.26604C7.70292 6.91243 7.98751 8.61787 8.82179 10.0722C9.65607 11.5265 10.9846 12.633 12.5658 13.1906C14.147 13.7481 15.8758 13.7196 17.4377 13.1103Z" fill="#290A80"/>
</svg>
