<svg width="15" height="12" viewBox="0 0 15 12" fill="none" xmlns="http://www.w3.org/2000/svg">
<path d="M10.6772 7.75H10.0579L9.83835 7.58125C10.6066 6.86875 11.0691 5.94375 11.0691 4.9375C11.0691 2.69375 8.78787 0.875 5.97353 0.875C3.15919 0.875 0.87793 2.69375 0.87793 4.9375C0.87793 7.18125 3.15919 9 5.97353 9C7.23567 9 8.3959 8.63125 9.28959 8.01875L9.50126 8.19375V8.6875L13.421 11.8062L14.589 10.875L10.6772 7.75ZM5.97353 7.75C4.02152 7.75 2.44581 6.49375 2.44581 4.9375C2.44581 3.38125 4.02152 2.125 5.97353 2.125C7.92554 2.125 9.50126 3.38125 9.50126 4.9375C9.50126 6.49375 7.92554 7.75 5.97353 7.75Z" fill="#8F8F8F"/>
</svg>
